<?xml version="1.0" standalone="no"?>
<!DOCTYPE svg PUBLIC "-//W3C//DTD SVG 20010904//EN"
 "http://www.w3.org/TR/2001/REC-SVG-20010904/DTD/svg10.dtd">
<svg version="1.0" xmlns="http://www.w3.org/2000/svg"
 width="1280.000000pt" height="1024.000000pt" viewBox="0 0 1280.000000 1024.000000"
 preserveAspectRatio="xMidYMid meet">

<g transform="translate(0.000000,1024.000000) scale(0.100000,-0.100000)"
fill="#000000" stroke="none">
<path d="M5220 7687 l0 -524 -259 -399 c-143 -219 -258 -400 -257 -402 2 -1
358 202 791 453 433 251 789 454 791 452 3 -2 -288 -688 -645 -1523 -357 -835
-656 -1537 -665 -1559 l-17 -40 48 46 c26 25 344 317 705 648 l657 601 171 0
c205 0 331 12 466 46 530 130 938 570 1029 1109 22 125 22 348 1 465 -18 98
-76 292 -87 288 -4 -2 -204 -181 -445 -398 -240 -217 -441 -397 -446 -399 -6
-2 42 73 105 165 615 904 936 1378 933 1381 -1 2 -118 -44 -260 -102 -141 -58
-261 -105 -266 -105 -5 0 -42 25 -82 55 -80 61 -276 162 -378 196 -36 12 -105
31 -155 42 -87 20 -121 21 -912 24 l-823 4 0 -524z"/>
</g>
</svg>
